<svg xmlns="http://www.w3.org/2000/svg" xmlns:xlink="http://www.w3.org/1999/xlink" id="Layer_1" x="0" y="0" baseProfile="tiny" version="1.1" viewBox="0 0 213.9 240.6" xml:space="preserve"><g><g><path d="M64.5,66.3V0h9.7v66.3H64.5z"/><polygon points="50 9.7 50 0 5 0 5 .1 5 9.7 5 66.3 14.7 66.3 14.7 35.6 47.1 35.6 47.1 25.9 14.7 25.9 14.7 9.7"/><polygon points="210.6 9.7 210.6 0 165.7 0 165.7 .1 165.7 .1 165.7 66.3 165.7 66.3 175.3 66.3 210.6 66.3 210.6 56.6 175.3 56.6 175.3 35.6 207.8 35.6 207.8 25.9 175.3 25.9 175.3 9.7"/><path d="M140.2,66.4L101.3,13v53.5h-9.5V0.2h12.7l36.1,50.2V0.2h9.5v66.3H140.2z"/></g><g><g><g><path d="M108.2,191.3c-0.7-4.7-4.7-11.2-13.7-11.2c-7.3,0-12.5,4.8-12.5,10.9c0,4.7,2.8,8.3,8.3,9.6l9.7,2.1 c10.8,2.4,16.8,9.3,16.8,18.5c0,10.2-8.6,19.5-22.4,19.5c-15.6,0-23-10.2-24.2-19.6l8.6-2.8c1.1,7.3,5.8,14.1,15.5,14.1 c8.9,0,13.3-4.7,13.3-10.5c0-4.7-3.2-8.8-9.7-10.2l-9.2-2c-9.2-2-15.8-8.2-15.8-18c0-10.3,9.4-19.6,21.4-19.6 c14.6,0,20.4,9.2,21.9,16.3L108.2,191.3z"/></g></g><path d="M54.5,239.6h11l-26.2-66.3H26.5L0.3,239.6h10.9l7.9-21h27.3L54.5,239.6z M22.8,208.9l9.9-26.1l10,26.1H22.8z"/><path d="M203,239.6h11l-26.2-66.3H175l-26.2,66.3h10.9l7.9-21h27.3L203,239.6z M171.3,208.9l9.9-26.1l10,26.1H171.3z"/><path d="M128.2,239.6v-66.3h9.7v66.3H128.2z"/></g><g><g><polygon points="212.5 86.6 188.5 86.6 188.5 86.6 178.9 86.6 178.9 86.6 154.9 86.6 154.9 96.3 178.9 96.3 178.9 152.9 188.5 152.9 188.5 96.3 212.5 96.3"/><path d="M135.7,128.5c-6.7-7.5-11.2-7-11.2-7c5.5-0.4,10.9-6.8,10.9-14.4c0-4-1-7.7-2.8-10.9c-3.4-5.8-9.7-9.7-18.1-9.7 c0,0,0,0,0,0H85c0,0,0,0,0,0h0v0v0v9.7c0,0,0,56.6,0,56.6h9.6c0,0,0-25.5,0-25.5c0,0,0,0,0,0h10.9c16.6,0,16.4,0.5,19.6,3.6 c2.9,2.9,17.4,21.9,17.4,21.9h12.5C154.9,152.9,144.5,138.3,135.7,128.5z M115,117.6H94.6V96.2H115c5.4,0,10,4,10.5,9.4 c0,0.5,0.1,1,0.1,1.5c0,0.2,0,0.3,0,0.5C125.4,113.2,120.7,117.6,115,117.6z"/></g><path d="M54.2,152.9h11L39,86.6H26.2L0,152.9h10.9l7.9-21h27.3L54.2,152.9z M22.5,122.2l9.9-26.1l10,26.1H22.5z"/></g></g></svg>