<?xml version="1.0" encoding="utf-8"?>
<!-- Generator: Adobe Illustrator 23.0.3, SVG Export Plug-In . SVG Version: 6.00 Build 0)  -->
<svg version="1.1" baseProfile="tiny" id="Layer_1" xmlns="http://www.w3.org/2000/svg" xmlns:xlink="http://www.w3.org/1999/xlink"
	 x="0px" y="0px" viewBox="0 0 219.7 244.8" xml:space="preserve">
<g>
	<path d="M94.4,70.5c2.9,0,5.4,0.3,6.7,0.3h2.5V70h-0.1c-7.4-0.1-8.7-5.9-8.7-12V10.4l47.8,60.3c1.7,0,2.8-0.1,4.3-0.1
		c1.2,0,1.9,0.1,3.8,0.1l-5.2-7.6V17c0-6.1,3.2-11.9,15.3-12c4.7,0,9.3,2.8,9.3,7.8v52.4c0,4.2-0.9,4.8-5,4.8H165v0.8h1.6
		c2.2,0,3.8-0.1,6.8-0.1c3.8,0,5.7,0.1,8.7,0.1h23.2c2.6,0,2.7,1.2,3.4,2.6l0.7-0.4c0,0-4.9-7,1.9-23l-0.6-0.3
		c-4.3,7.2-6.8,12-9.9,15.6c-3.5,3.9-6.9,4.5-10.8,4.5h-13.2V34.2h10.6c7.9,0,8.8,5.5,9.6,13.2h0.7V20.3H197
		c-0.8,7.7-1.7,12.9-9.6,12.9h-10.6V5.2h12.1c3.9,0,7.7,0.5,10.5,3.5c2.7,2.9,3.5,4.1,8.6,11.2l0.6-0.3c0,0-4.9-9.2-4-18.1l-0.8,0
		c0.2,1.9-4.1,2.7-6.7,2.7h-15c-3,0-4.9,0.1-8.7,0.1c-3,0-4.6-0.1-6.8-0.1h-5.4h-0.5h-8.7c-1.4,0-3.8,0.3-6.8,0.3
		c-2.9,0-5.4-0.3-6.7-0.3h-2.4V5h0.1c7.4,0.1,8.6,5.9,8.6,12v44.8L98.6,4.2c-2,0-3.7,0.1-5.8,0.1c-1.9,0-2.6-0.1-5.2-0.1
		c-0.4,0-0.4,0-0.7,0V5h0.1c3.9,0,4.7,1.8,6.7,4.5V58c0,6.2-1.2,12-8.5,12h-0.1v0.8h2.3C89,70.8,91.4,70.5,94.4,70.5z"/>
	<path d="M80.5,112.4c2,1,4,1.9,6,2.6v37.1c0,4.2-2.3,4.9-6.4,4.9v0.8l2.9-0.1c2.2,0,3.8-0.3,6.8-0.3c3,0,4.6,0.3,6.8,0.3h1.6v-0.8
		h-0.1c-4.1,0-5-0.6-5-4.8v-30.3v-5.2c0,0,10.2,1.5,15.4,3.4c10,3.8,18.8,15.7,24,24.4c8.3,13.8,10.4,16.9,17.9,20.7
		c6.2,3.1,14.6,3.2,19.7-3c2.8-3.4,5.3-4.5,9-4.7c1.4,0,3.1-0.1,4.5-0.1c3,0,4.6,0.3,6.8,0.3h1.6v-0.8h-0.1c-4.1,0-5-0.6-5-4.8V92h0
		h8.6c3.6,0,17,5.3,21.5,14l0.6-0.3c0,0-6.2-11.5-5.4-17.8l-0.6,0.1c-1.8,2-6.9,3-9.5,3h-10.4l0,0l0,0c-1.8,0-4.5,0.1-8.1,0.1
		c-3.6,0-6.4-0.1-8.1-0.1h-10.4c-2.6,0-7.8-1.1-9.5-3l-0.6-0.1c0.8,6.3-5.4,17.8-5.4,17.8l0.6,0.3c4.5-8.7,17.9-14,21.5-14h8.6v60
		c0,2.5-1.6,3.6-3.2,4.5c-1.7,0.9-4,1.4-7.7,5.3c-3.7,3.8-12.1,5.4-16.9,2.3c-3.4-2.3-5.8-7.2-12.3-21c-4.1-8.6-12.1-14.9-20.9-19.4
		c6.4-2.7,9.5-9.2,9.5-15.8c0-10.1-9.3-16.8-22.1-16.8c0,0-11.4,0.1-13.6,0.1c0,0,0.5,0-3.3,0c-3,0-4.6-0.1-6.8-0.1h-2.2
		c-4.1,0-9.3,2.1-8.9,9.9C72.2,106,76.6,110.3,80.5,112.4z M105,92.1c11.7,0,16.6,7.4,16.6,15.7c0,5-2,11-6.1,14
		c-1.7-0.8-3.5-1.5-5.4-2.1c-4.5-1.8-16.4-3.7-17-3.8c-0.2,0,0-23.7,0-23.7H105z M80.9,91.9c4.1,0,5.6,0.6,5.6,4.8V114
		c-6.8-2.4-13.3-7.6-13.6-12.3C72.5,95.5,77.2,91.9,80.9,91.9z"/>
	<path d="M37.5,48.4c-0.8-7.8-0.4-13.2-8.4-13.2H16.3v30c0,3.9,1.9,4.9,6.9,4.9h2v0.8h-2.9c-3,0-4.9-0.3-8.7-0.3
		c-3.2,0-4.9,0.3-7.4,0.3H4.5v-0.8h0.1c4.1,0,5-0.6,5-4.8V9.5c0-4.2-0.9-4.8-5-4.8H4.5V3.9h1.6C8.3,3.9,9.9,4,12.9,4
		c3,0,4.6-0.1,6.9-0.1h17c2.7,0,11.3-2,11.6-3.9l0.9,0.3c-1.9,4.2-2.1,8.4-0.1,13.1c2.2,5.3,5,8.2,6.2,14.3l-1.2,0
		c-0.8-5.7-3.6-9-7-13.3c-3.2-4.2-9.7-9.4-17.4-9.4H16.3v29.3h12.9c8,0,7.6-5.2,8.4-13.1h0.7v27.2H37.5z"/>
	<path d="M65.9,55.2V9.5c0-4.2-0.9-4.8-5-4.8h-0.1V3.9h1.6c2.3,0,3.8,0.3,6.9,0.3c3,0,4.6-0.3,6.9-0.3h1.6v0.8h-0.1
		c-4.1,0-5,0.6-5,4.8v55.7c0,4.2,0.9,4.8,5,4.8h0.1v0.8h-1.6c-2.3,0-3.8-0.3-6.9-0.3c-3,0-4.6,0.3-6.9,0.3h-1.6v-0.8h0.1
		c4.1,0,5-0.6,5-4.8V55.2"/>
	<path d="M63,151L38,91c-1.5,0-2.5,0.1-4,0.1c-1.4,0-2.4-0.1-4.3-0.1l2.4,5.1l-18.9,48C9.7,153.2,6,156.6,0,156.8v0.9h2.3
		c1.8,0,6.1-0.3,7.7-0.3c2.8,0,6.7,0.3,9.3,0.3h1.3v-0.9c-5.6,0-7.8-2.6-7.8-5.9c0-1.7,0.8-4.6,1.5-6.6l3.1-7.8h31.3l5.7,14.1
		c0.6,1.2,0.8,2.1,0.8,2.8c0,2.5-2.3,3.5-5.7,3.5v0.9h2.3c1.5,0,5-0.3,8.5-0.3c3.1,0,6.4,0.3,8.2,0.3h2.9v-0.8
		C65.9,156.9,64.8,155.5,63,151z M17.8,135.4l0.1-0.1l0.4-1l14.6-37l15,37l0.4,1l0.1,0.1H17.8z"/>
	<path d="M98.6,206.5l-3.6-1.7C86.9,201,83,197,83,190c0-6.4,3.9-11.9,11.5-11.9c5.3,0,9.2,2.5,16.5,18l0.5-0.3
		c-4-9.9-1.1-18.3-1.1-18.3l-0.6,0.1c-0.7,1.8-3,3.2-5,2.6c-3-0.9-3.2-3-10.2-3c-8,0-16.5,6-16.5,16.1c0,9.7,8.5,15.4,14.7,18.3
		l4,1.9c8,3.7,16.5,10.8,15.6,19.3c-0.6,5.4-4.7,11-15.7,11c-7.7,0-13-4.5-19.9-20.9l-1,0c3.6,9.2,2.1,19.9-4.9,20.4
		c-6.5,0.4-6.1-1.2-8-5.7l-24.9-60c-1.5,0-2.5,0.1-4,0.1c-1.4,0-2.4-0.1-4.3-0.1l2.4,5.1l-18.9,48c-3.5,9.2-7.3,12.5-13.2,12.7v0.9
		h2.3c1.8,0,6.1-0.3,7.7-0.3c2.8,0,6.7,0.3,9.3,0.3h1.3v-0.9c-5.6,0-7.8-2.6-7.8-5.9c0-1.7,0.8-4.6,1.5-6.6l3.1-7.8h31.3l5.7,14.1
		c0.6,1.2,0.8,2.1,0.8,2.8c0,2.5-2.3,3.5-5.7,3.5v0.9h2.3c1.5,0,5-0.3,8.5-0.3c3.1,0,6.5,0.3,8.3,0.3c0,0,2.3-0.1,3.5-0.1
		c5.6-0.2,7.9-4.7,12-2.7c4.2,2,7.9,3,13.8,3.3c10.6,0.5,19.9-8,19.9-18.3C117.8,216,107.1,210.5,98.6,206.5z M17.8,222.1l0.1-0.1
		l0.4-1l14.6-37l15,37l0.4,1l0.1,0.1H17.8z"/>
	<path d="M211.3,237.6l-24.9-60c-1.5,0-2.5,0.1-4,0.1c-1.4,0-2.4-0.1-4.3-0.1l2.4,5.1l-18.9,48c-3.5,9.1-7.2,12.5-13.1,12.7
		c-0.9,0-5.8,0-5.8,0c-4.1,0-6.4-0.9-6.4-5.1v-55.3c0-4.2,0.9-4.8,5-4.8h0.1v-0.8h-1.6c-2.2,0-3.8,0.3-6.8,0.3c-3,0-4.6-0.3-6.8-0.3
		h-1.6v0.8h0.1c4.1,0,5,0.6,5,4.8v55.3c0,4.2-0.9,5.1-5,5.1h-0.1v0.9h1.6c2.2,0,3.8-0.3,6.8-0.3c3,0,4.6,0.3,6.8,0.3h4.4h0.2
		c0,0,3.1,0,4,0v0h2.3c1.8,0,6.1-0.3,7.7-0.3c2.8,0,6.7,0.3,9.3,0.3h1.3v-0.9c-5.6,0-7.8-2.6-7.8-5.9c0-1.7,0.8-4.6,1.5-6.6l3.1-7.8
		h31.3l5.7,14.1c0.6,1.2,0.8,2.1,0.8,2.8c0,2.5-2.3,3.5-5.7,3.5v0.9h2.3c1.5,0,5-0.3,8.5-0.3c3.1,0,6.4,0.3,8.2,0.3h2.9v-0.8
		C214.2,243.6,213.2,242.1,211.3,237.6z M166.2,222.1l0.1-0.1l0.4-1l14.6-37l15,37l0.4,1l0.1,0.1H166.2z"/>
</g>
</svg>
